PathFileType	4	(X/Y/Z)	c:/Users/goper/Files/vsCode/490R/osim_files/A03/A03_Static01.trc
DataRate	CameraRate	NumFrames	NumMarkers	Units                	OrigDataRate	OrigDataStartFrame	OrigNumFrames
250.00	250.00	7	36	mm	250.0	419	1674
                Frame#	Time	LPSIS			LASIS			LTH1			LTH2			LTH3			LTH4			LLFE			LMFE			LSH1			LSH2			LSH3			LSH4			LLMAL			LMMAL			LCAL			LMTP5			LTOE			LMTP1			RPSIS			RASIS			RTH1			RTH2			RTH3			RTH4			RLFE			RMFE			RSH1			RSH2			RSH3			RSH4			RLMAL			RMMAL			RCAL			RMTP1			RTOE			RMTP5		
		X1	Y1	Z1	X2	Y2	Z2	X3	Y3	Z3	X4	Y4	Z4	X5	Y5	Z5	X6	Y6	Z6	X7	Y7	Z7	X8	Y8	Z8	X9	Y9	Z9	X10	Y10	Z10	X11	Y11	Z11	X12	Y12	Z12	X13	Y13	Z13	X14	Y14	Z14	X15	Y15	Z15	X16	Y16	Z16	X17	Y17	Z17	X18	Y18	Z18	X19	Y19	Z19	X20	Y20	Z20	X21	Y21	Z21	X22	Y22	Z22	X23	Y23	Z23	X24	Y24	Z24	X25	Y25	Z25	X26	Y26	Z26	X27	Y27	Z27	X28	Y28	Z28	X29	Y29	Z29	X30	Y30	Z30	X31	Y31	Z31	X32	Y32	Z32	X33	Y33	Z33	X34	Y34	Z34	X35	Y35	Z35	X36	Y36	Z36

419	1.67200	-353.31668	1067.09412	432.62842	-113.62048	989.63971	320.16589	-178.72787	660.20776	244.48828	-170.58321	617.51495	243.12843	-117.11672	664.64563	256.16199	-118.73483	620.76923	254.38748	-166.59230	561.08411	246.85771	-137.37732	529.84363	398.42081	-224.02028	478.98672	241.48061	-229.38132	430.86215	237.49303	-163.03116	463.73474	240.08672	-179.22964	418.66772	240.29182	-282.65338	105.78553	230.07324	-262.88678	105.20520	322.64337	-350.06305	86.78394	288.95840	-138.96574	41.89749	197.74916	-101.11854	68.40802	263.86911	-126.76533	48.00747	311.46341	-354.90167	1069.02344	501.10529	-120.33810	988.60095	628.07648	-221.88686	660.22809	698.44379	-219.87325	615.57782	694.89429	-161.51117	656.34076	705.42444	-166.45602	612.38794	700.83386	-195.75681	548.27496	689.37817	-135.28816	540.77325	577.43152	-253.71100	486.70834	685.46759	-263.10553	448.34103	701.53833	-195.81987	473.59253	703.44537	-214.42714	432.19006	716.56464	-281.71219	129.49783	701.86328	-231.08884	118.26252	622.94720	-333.22095	86.97060	647.41449	-120.52849	49.66272	629.92889	-95.57632	71.35962	680.67572	-133.50211	40.88046	747.75684
420	1.67600	-353.35794	1067.12244	432.58221	-113.63602	989.63940	320.13260	-178.73848	660.19324	244.48938	-170.59534	617.51300	243.12573	-117.11336	664.66284	256.14893	-118.75919	620.77118	254.37619	-166.57654	561.07581	246.85143	-137.37627	529.86249	398.39221	-224.01300	478.97809	241.48822	-229.38832	430.86728	237.48962	-163.05971	463.72031	240.08670	-179.24344	418.67184	240.30118	-282.65909	105.78453	230.06784	-262.88882	105.22625	322.64471	-349.30417	86.39546	288.60623	-138.96687	41.90567	197.75240	-101.11017	68.42535	263.86511	-126.73764	48.02194	311.44885	-354.94281	1069.04199	501.04572	-120.37088	988.65747	628.05573	-221.94196	660.28955	698.43506	-219.88745	615.62646	694.86548	-161.53040	656.39856	705.41565	-166.47337	612.43683	700.84155	-195.76617	548.31238	689.33844	-135.32620	540.76459	577.44214	-253.73582	486.74393	685.45276	-263.15924	448.37540	701.51550	-195.83553	473.63724	703.44806	-214.50821	432.25592	716.54456	-281.71536	129.52505	701.84698	-231.24844	118.23437	623.04828	-333.21991	87.01196	647.40234	-120.50015	49.68981	629.91138	-95.57927	71.35722	680.67438	-133.48294	40.89643	747.75470
421	1.68000	-353.39166	1067.13696	432.53162	-113.64968	989.64655	320.13608	-178.77406	660.20416	244.48714	-170.60617	617.53589	243.11752	-117.14271	664.67950	256.14929	-118.76484	620.77924	254.37807	-166.62059	561.07465	246.87009	-137.39603	529.88580	398.37985	-224.02159	478.98782	241.47278	-229.41316	430.85242	237.55659	-163.06882	463.74069	240.08794	-179.24997	418.67566	240.31096	-282.67261	105.78960	230.08812	-262.87070	105.25367	322.63297	-349.31845	86.40790	288.59216	-138.97574	41.91810	197.75159	-101.09057	68.43114	263.83557	-126.74141	48.02974	311.43777	-354.94583	1069.06702	501.01053	-120.40012	988.69214	628.02917	-221.96864	660.31512	698.40814	-219.93066	615.66107	694.87500	-161.56415	656.43225	705.42004	-166.49194	612.47375	700.83942	-195.81712	548.37103	689.36176	-135.35443	540.77661	577.44604	-253.77110	486.75894	685.43896	-263.17877	448.39810	701.50830	-195.87332	473.67590	703.44312	-214.53850	432.30447	716.54327	-281.70874	129.55717	701.84277	-231.25041	118.23650	623.06250	-333.21298	87.04366	647.37354	-120.51427	49.69625	629.91571	-95.55148	71.37016	680.66492	-133.47980	40.90417	747.76691
422	1.68400	-353.45020	1067.16284	432.48648	-113.64872	989.66089	320.13208	-178.74524	660.23029	244.46323	-170.62619	617.54120	243.11313	-117.17945	664.68378	256.15826	-118.79755	620.77936	254.38127	-166.62880	561.10181	246.86501	-137.39787	529.89862	398.37997	-224.04512	478.99774	241.46912	-229.40266	430.87354	237.50606	-163.09309	463.75333	240.08754	-179.25977	418.68231	240.29665	-282.66464	105.80241	230.08328	-262.86447	105.26857	322.63223	-349.32874	86.43086	288.60324	-138.95467	41.93308	197.75356	-101.05592	68.45658	263.83304	-126.76947	48.02230	311.46167	-355.00986	1069.08228	500.94669	-120.43102	988.70697	628.01508	-221.98625	660.32935	698.42950	-219.94345	615.67999	694.89014	-161.55948	656.45380	705.42297	-166.49829	612.50543	700.84180	-195.81094	548.40057	689.36798	-135.37219	540.79388	577.46472	-253.77019	486.79248	685.46014	-263.18503	448.41113	701.51245	-195.88737	473.68848	703.46167	-214.52411	432.32498	716.55811	-281.70453	129.56841	701.87268	-231.24249	118.24454	623.06134	-333.20541	87.05698	647.39575	-120.51846	49.69811	629.92731	-95.58684	71.35293	680.64545	-133.44688	40.91296	747.75403
423	1.68800	-353.45120	1067.18237	432.44928	-113.67962	989.67389	320.12238	-178.81854	660.23688	244.47935	-170.64488	617.54938	243.11368	-117.18376	664.67627	256.14102	-118.81259	620.78668	254.36684	-166.65121	561.11426	246.86539	-137.40132	529.89862	398.39227	-224.05003	479.00977	241.46895	-229.39185	430.88083	237.48857	-163.10516	463.74939	240.08934	-179.29059	418.68582	240.29958	-282.64655	105.81058	230.07625	-262.85229	105.26450	322.63217	-350.06516	86.81998	288.97287	-138.98181	41.93116	197.74269	-101.09639	68.43391	263.87360	-126.73154	48.05324	311.46280	-355.01038	1069.11279	500.90112	-120.48695	988.71149	628.00952	-221.96916	660.34277	698.43445	-219.94257	615.69440	694.89435	-161.60995	656.46259	705.43304	-166.50787	612.51270	700.84943	-195.81442	548.40552	689.36823	-135.39586	540.81006	577.48041	-253.78830	486.78799	685.46948	-263.19153	448.41452	701.54114	-195.89062	473.70844	703.47363	-214.54672	432.34613	716.56537	-281.69189	129.58138	701.87085	-231.02954	118.31668	622.99341	-333.18082	87.04778	647.41058	-120.52827	49.68644	629.93372	-95.54674	71.35631	680.66144	-133.42735	40.90089	747.76349
424	1.69200	-353.47473	1067.19080	432.41376	-113.66961	989.67603	320.10394	-178.80659	660.23297	244.47499	-170.65828	617.56488	243.11308	-117.21697	664.67627	256.13910	-118.83733	620.78699	254.36758	-166.66580	561.12518	246.86194	-137.42316	529.88800	398.40491	-224.09465	479.02335	241.48444	-229.43436	430.89880	237.49445	-163.11696	463.75192	240.08510	-179.30273	418.68643	240.30296	-282.66757	105.82664	230.07288	-262.80981	105.25653	322.66998	-350.04593	86.80604	288.96909	-138.79277	42.05447	197.75636	-101.07015	68.44535	263.88730	-126.73714	48.04651	311.45422	-355.07388	1069.13037	500.83701	-120.53024	988.72754	627.98676	-221.98828	660.34338	698.44830	-219.95091	615.70227	694.90576	-161.61754	656.47595	705.42926	-166.55185	612.51331	700.85614	-195.83298	548.40436	689.37262	-135.42439	540.85754	577.52057	-253.77734	486.79080	685.48364	-263.20615	448.42810	701.54352	-195.88956	473.72055	703.49109	-214.50758	432.31503	716.59827	-281.66705	129.58176	701.86182	-231.21255	118.29829	623.07184	-333.14221	87.02480	647.40857	-120.51643	49.66194	629.93616	-95.56469	71.36195	680.69720	-133.33138	41.09464	747.90479
425	1.69600	-353.50177	1067.20789	432.34894	-113.67580	989.69403	320.11160	-178.86768	660.26447	244.49294	-170.68312	617.55835	243.12729	-117.22354	664.68805	256.14362	-118.84752	620.78607	254.37654	-166.69200	561.12097	246.86089	-137.43068	529.90118	398.41403	-224.08736	479.03143	241.48106	-229.45825	430.91895	237.51154	-163.13646	463.77045	240.09929	-179.31422	418.70175	240.30486	-282.66013	105.82396	230.08170	-262.80344	105.25949	322.66388	-350.04282	86.82824	288.97003	-138.96466	41.95398	197.76862	-101.05310	68.43658	263.89746	-126.74049	48.04651	311.45596	-355.09393	1069.15479	500.79453	-120.56373	988.75403	627.97430	-221.98140	660.33972	698.44287	-219.94713	615.71393	694.90234	-161.62617	656.48938	705.43427	-166.57866	612.53705	700.84839	-195.83029	548.43115	689.35760	-135.43982	540.86652	577.49646	-253.80147	486.80676	685.46478	-263.20795	448.41882	701.55518	-195.88397	473.74374	703.49182	-214.54277	432.34708	716.59509	-281.64066	129.58626	701.88763	-231.06042	118.35907	623.02045	-333.12991	87.05739	647.40454	-120.46815	49.69447	629.95306	-95.54510	71.36883	680.68671	-133.41969	40.90907	747.77545
